<svg width="42" height="42" viewBox="0 0 42 42" fill="none" xmlns="http://www.w3.org/2000/svg">
<rect width="42" height="42" rx="5" fill="#00CCFF"/>
<path d="M16.252 11.4775V30H12.5957V15.6924L8.20312 17.0889V14.207L15.8584 11.4775H16.252ZM34.7109 19.1328V22.332C34.7109 23.7201 34.5628 24.9176 34.2666 25.9248C33.9704 26.9235 33.543 27.7445 32.9844 28.3877C32.4342 29.0225 31.7783 29.4922 31.0166 29.7969C30.2549 30.1016 29.4085 30.2539 28.4775 30.2539C27.7327 30.2539 27.0387 30.1608 26.3955 29.9746C25.7523 29.7799 25.1725 29.4795 24.6562 29.0732C24.1484 28.667 23.7083 28.1549 23.3359 27.5371C22.972 26.9108 22.6927 26.166 22.498 25.3027C22.3034 24.4395 22.2061 23.4492 22.2061 22.332V19.1328C22.2061 17.7448 22.3542 16.5557 22.6504 15.5654C22.9551 14.5667 23.3825 13.75 23.9326 13.1152C24.4912 12.4805 25.1514 12.015 25.9131 11.7188C26.6748 11.4141 27.5212 11.2617 28.4521 11.2617C29.1969 11.2617 29.8867 11.359 30.5215 11.5537C31.1647 11.7399 31.7445 12.0319 32.2607 12.4297C32.777 12.8275 33.2171 13.3395 33.5811 13.9658C33.945 14.5837 34.2243 15.3242 34.4189 16.1875C34.6136 17.0423 34.7109 18.0241 34.7109 19.1328ZM31.042 22.8145V18.6377C31.042 17.9691 31.0039 17.3851 30.9277 16.8857C30.86 16.3864 30.7542 15.9632 30.6104 15.6162C30.4665 15.2607 30.2887 14.973 30.0771 14.7529C29.8656 14.5329 29.6243 14.3721 29.3535 14.2705C29.0827 14.1689 28.7822 14.1182 28.4521 14.1182C28.0374 14.1182 27.6693 14.1986 27.3477 14.3594C27.0345 14.5202 26.7679 14.7783 26.5479 15.1338C26.3278 15.4808 26.1585 15.9463 26.04 16.5303C25.93 17.1058 25.875 17.8083 25.875 18.6377V22.8145C25.875 23.4831 25.9089 24.0713 25.9766 24.5791C26.0527 25.0869 26.1628 25.5228 26.3066 25.8867C26.459 26.2422 26.6367 26.5342 26.8398 26.7627C27.0514 26.9827 27.2926 27.1436 27.5635 27.2451C27.8428 27.3467 28.1475 27.3975 28.4775 27.3975C28.8838 27.3975 29.2435 27.3171 29.5566 27.1562C29.8783 26.987 30.1491 26.7246 30.3691 26.3691C30.5977 26.0052 30.7669 25.5312 30.877 24.9473C30.987 24.3633 31.042 23.6523 31.042 22.8145Z" fill="white"/>
</svg>
