<svg width="42" height="42" viewBox="0 0 42 42" fill="none" xmlns="http://www.w3.org/2000/svg">
<rect width="42" height="42" rx="5" fill="#FE0000"/>
<path d="M16.252 11.4775V30H12.5957V15.6924L8.20312 17.0889V14.207L15.8584 11.4775H16.252ZM31.7021 11.3252H32.2354V14.2451H32.0195C31.0547 14.2451 30.1956 14.389 29.4424 14.6768C28.6891 14.9645 28.0501 15.375 27.5254 15.9082C27.0091 16.4329 26.6113 17.0677 26.332 17.8125C26.0612 18.5573 25.9258 19.391 25.9258 20.3135V23.3857C25.9258 24.0459 25.9893 24.6299 26.1162 25.1377C26.2516 25.637 26.4421 26.056 26.6875 26.3945C26.9414 26.7246 27.2376 26.9743 27.5762 27.1436C27.9147 27.3044 28.2956 27.3848 28.7188 27.3848C29.1165 27.3848 29.4762 27.3001 29.7979 27.1309C30.1279 26.9616 30.4072 26.7246 30.6357 26.4199C30.8727 26.1068 31.0505 25.7428 31.1689 25.3281C31.2959 24.9049 31.3594 24.4437 31.3594 23.9443C31.3594 23.445 31.2959 22.9837 31.1689 22.5605C31.0505 22.1374 30.8727 21.7734 30.6357 21.4688C30.3988 21.1556 30.111 20.9144 29.7725 20.7451C29.4339 20.5758 29.0531 20.4912 28.6299 20.4912C28.0544 20.4912 27.5465 20.6266 27.1064 20.8975C26.6748 21.1598 26.3363 21.4984 26.0908 21.9131C25.8454 22.3278 25.7142 22.7637 25.6973 23.2207L24.5928 22.5098C24.6182 21.8581 24.7536 21.2402 24.999 20.6562C25.2529 20.0723 25.5999 19.556 26.04 19.1074C26.4886 18.6504 27.026 18.2949 27.6523 18.041C28.2786 17.7786 28.9854 17.6475 29.7725 17.6475C30.6357 17.6475 31.3932 17.8125 32.0449 18.1426C32.7051 18.4727 33.2552 18.9255 33.6953 19.501C34.1354 20.0765 34.4655 20.7409 34.6855 21.4941C34.9056 22.2474 35.0156 23.0514 35.0156 23.9062C35.0156 24.8034 34.8675 25.637 34.5713 26.4072C34.2835 27.1774 33.8646 27.8503 33.3145 28.4258C32.7728 29.0013 32.1211 29.4499 31.3594 29.7715C30.5977 30.0931 29.7428 30.2539 28.7949 30.2539C27.8132 30.2539 26.9202 30.0762 26.1162 29.7207C25.3206 29.3568 24.6351 28.849 24.0596 28.1973C23.484 27.5456 23.0397 26.7712 22.7266 25.874C22.4219 24.9769 22.2695 23.9951 22.2695 22.9287V21.5068C22.2695 20.0173 22.4854 18.6546 22.917 17.4189C23.3571 16.1748 23.9876 15.0999 24.8086 14.1943C25.6296 13.2803 26.6198 12.5736 27.7793 12.0742C28.9388 11.5749 30.2464 11.3252 31.7021 11.3252Z" fill="white"/>
</svg>
