<svg width="42" height="42" viewBox="0 0 42 42" fill="none" xmlns="http://www.w3.org/2000/svg">
<rect width="42" height="42" rx="5" fill="black"/>
<path d="M16.252 11.4775V30H12.5957V15.6924L8.20312 17.0889V14.207L15.8584 11.4775H16.252ZM34.7236 24.9346C34.7236 26.0941 34.4528 27.0716 33.9111 27.8672C33.3695 28.6543 32.6247 29.251 31.6768 29.6572C30.7373 30.055 29.6709 30.2539 28.4775 30.2539C27.2842 30.2539 26.2135 30.055 25.2656 29.6572C24.3177 29.251 23.5687 28.6543 23.0186 27.8672C22.4684 27.0716 22.1934 26.0941 22.1934 24.9346C22.1934 24.1559 22.3499 23.4535 22.6631 22.8271C22.9762 22.1924 23.4121 21.6507 23.9707 21.2021C24.5378 20.7451 25.2021 20.3981 25.9639 20.1611C26.7256 19.9157 27.555 19.793 28.4521 19.793C29.654 19.793 30.7288 20.0046 31.6768 20.4277C32.6247 20.8509 33.3695 21.4476 33.9111 22.2178C34.4528 22.988 34.7236 23.8936 34.7236 24.9346ZM31.042 24.6934C31.042 24.1263 30.932 23.6396 30.7119 23.2334C30.5003 22.8187 30.1999 22.5013 29.8105 22.2812C29.4212 22.0612 28.9684 21.9512 28.4521 21.9512C27.9359 21.9512 27.4831 22.0612 27.0938 22.2812C26.7044 22.5013 26.3997 22.8187 26.1797 23.2334C25.9681 23.6396 25.8623 24.1263 25.8623 24.6934C25.8623 25.252 25.9681 25.7344 26.1797 26.1406C26.3997 26.5469 26.7044 26.86 27.0938 27.0801C27.4915 27.2917 27.9528 27.3975 28.4775 27.3975C29.0023 27.3975 29.4551 27.2917 29.8359 27.0801C30.2253 26.86 30.5215 26.5469 30.7246 26.1406C30.9362 25.7344 31.042 25.252 31.042 24.6934ZM34.3301 16.416C34.3301 17.3555 34.0804 18.1891 33.5811 18.917C33.0817 19.6364 32.3877 20.1992 31.499 20.6055C30.6188 21.0117 29.6117 21.2148 28.4775 21.2148C27.335 21.2148 26.3193 21.0117 25.4307 20.6055C24.542 20.1992 23.848 19.6364 23.3486 18.917C22.8493 18.1891 22.5996 17.3555 22.5996 16.416C22.5996 15.2988 22.8493 14.3594 23.3486 13.5977C23.8564 12.8275 24.5505 12.2435 25.4307 11.8457C26.3193 11.4479 27.3265 11.249 28.4521 11.249C29.5947 11.249 30.6061 11.4479 31.4863 11.8457C32.375 12.2435 33.069 12.8275 33.5684 13.5977C34.0762 14.3594 34.3301 15.2988 34.3301 16.416ZM30.6738 16.5811C30.6738 16.0817 30.585 15.6501 30.4072 15.2861C30.2295 14.9137 29.9756 14.626 29.6455 14.4229C29.3239 14.2197 28.9261 14.1182 28.4521 14.1182C27.9951 14.1182 27.6016 14.2155 27.2715 14.4102C26.9499 14.6048 26.7002 14.8883 26.5225 15.2607C26.3532 15.6247 26.2686 16.0648 26.2686 16.5811C26.2686 17.0804 26.3532 17.5205 26.5225 17.9014C26.7002 18.2738 26.9541 18.5658 27.2842 18.7773C27.6143 18.9889 28.012 19.0947 28.4775 19.0947C28.943 19.0947 29.3366 18.9889 29.6582 18.7773C29.9883 18.5658 30.238 18.2738 30.4072 17.9014C30.585 17.5205 30.6738 17.0804 30.6738 16.5811Z" fill="white"/>
</svg>
