<svg width="42" height="42" viewBox="0 0 42 42" fill="none" xmlns="http://www.w3.org/2000/svg">
<rect width="42" height="42" rx="5" fill="#333333"/>
<path d="M22.1807 24.3506H18.9434C18.9518 23.5889 19.0111 22.9329 19.1211 22.3828C19.2396 21.8242 19.4385 21.3206 19.7178 20.8721C20.0055 20.4235 20.3864 19.9792 20.8604 19.5391C21.2581 19.1836 21.6051 18.8451 21.9014 18.5234C22.1976 18.2018 22.4303 17.8717 22.5996 17.5332C22.7689 17.1862 22.8535 16.8011 22.8535 16.3779C22.8535 15.887 22.7773 15.4808 22.625 15.1592C22.4811 14.8291 22.2611 14.5794 21.9648 14.4102C21.6771 14.2409 21.3132 14.1562 20.873 14.1562C20.5091 14.1562 20.1706 14.2367 19.8574 14.3975C19.5443 14.5498 19.2861 14.7868 19.083 15.1084C18.8883 15.43 18.7868 15.8532 18.7783 16.3779H15.0967C15.1221 15.2184 15.3887 14.262 15.8965 13.5088C16.4128 12.7471 17.1025 12.1842 17.9658 11.8203C18.8291 11.4479 19.7982 11.2617 20.873 11.2617C22.0579 11.2617 23.0736 11.4564 23.9199 11.8457C24.7663 12.2266 25.4137 12.7894 25.8623 13.5342C26.3109 14.2705 26.5352 15.1676 26.5352 16.2256C26.5352 16.9619 26.3913 17.6178 26.1035 18.1934C25.8158 18.7604 25.4391 19.2894 24.9736 19.7803C24.5081 20.2712 23.9961 20.779 23.4375 21.3037C22.9551 21.7354 22.625 22.1882 22.4473 22.6621C22.278 23.1361 22.1891 23.6989 22.1807 24.3506ZM18.5625 28.2734C18.5625 27.7318 18.7487 27.2832 19.1211 26.9277C19.4935 26.5638 19.9928 26.3818 20.6191 26.3818C21.237 26.3818 21.7321 26.5638 22.1045 26.9277C22.4854 27.2832 22.6758 27.7318 22.6758 28.2734C22.6758 28.7982 22.4854 29.2425 22.1045 29.6064C21.7321 29.9704 21.237 30.1523 20.6191 30.1523C19.9928 30.1523 19.4935 29.9704 19.1211 29.6064C18.7487 29.2425 18.5625 28.7982 18.5625 28.2734Z" fill="white"/>
</svg>
